<?xml version="1.0" encoding="UTF-8"?>
<svg version="1.1" xmlns="http://www.w3.org/2000/svg" width="512" height="512">
<path d="M0 0 C1.1962072 -0.00855011 1.1962072 -0.00855011 2.4165802 -0.01727295 C4.11030763 -0.0267149 5.80405337 -0.03325374 7.49780273 -0.03710938 C10.02818536 -0.04667152 12.55770356 -0.07763919 15.08789062 -0.109375 C30.39409159 -0.2095326 45.03607333 1.18764008 58.89453125 8.203125 C59.87808594 8.69554687 60.86164063 9.18796875 61.875 9.6953125 C80.33205701 19.67597205 92.45298743 35.78817441 98.70703125 55.703125 C99.50764815 58.42787644 99.89453125 60.3362543 99.89453125 63.203125 C100.70939694 63.20160612 101.52426262 63.20008724 102.36382121 63.19852233 C150.62971528 63.10906381 198.89560059 63.04040599 247.16156093 62.99886368 C252.95332917 62.99386069 258.74509725 62.98868342 264.53686523 62.98339844 C266.26646386 62.98182457 266.26646386 62.98182457 268.03100387 62.98021892 C286.71591358 62.96280054 305.4007742 62.93125497 324.08565476 62.89451382 C343.24955614 62.85714424 362.41343176 62.83489759 381.57736808 62.82677102 C393.40823556 62.82127498 405.2389643 62.80389902 417.06978909 62.77145913 C425.17606283 62.75036041 433.28226455 62.74391441 441.38856377 62.74911949 C446.06966939 62.75168851 450.75053212 62.74767413 455.43159485 62.7263031 C459.71448145 62.70689213 463.99696094 62.70581927 468.27986596 62.71952942 C469.83176978 62.72122483 471.38369861 62.71610434 472.93555292 62.70359227 C475.04119896 62.68759811 477.14536492 62.69615267 479.25098705 62.71093369 C480.42166483 62.7094148 481.59234261 62.70789592 482.79849547 62.70633101 C486.54755351 63.30790981 488.22041352 64.55657963 490.89453125 67.203125 C493.01663128 74.60525937 489.56595977 83.63799774 487.65234375 90.78125 C487.29639683 92.14689246 486.94161741 93.51283964 486.58789062 94.87905884 C485.8182826 97.84243175 485.0412835 100.80372772 484.25836182 103.76361084 C482.99700422 108.53242349 481.75048559 113.30502874 480.50732422 118.07861328 C480.29206148 118.90517992 480.07679874 119.73174656 479.85501289 120.58336067 C479.40911823 122.29570442 478.96328602 124.00806442 478.51751328 125.72043991 C477.82125768 128.39291529 477.12336263 131.06495897 476.42532349 133.73696899 C472.85179256 147.43234063 469.36196657 161.1480061 465.90106583 174.87223816 C465.02180843 178.35815934 464.14123879 181.84374637 463.26022339 185.32922363 C462.67461993 187.64623982 462.08901812 189.96325642 461.50341797 192.28027344 C461.21436522 193.42390854 460.92531246 194.56754364 460.62750053 195.74583435 C459.18139497 201.46984624 457.73845816 207.19462489 456.30181885 212.92102051 C454.9351268 218.36769655 453.55959554 223.81207007 452.17788696 229.25495529 C451.66849553 231.26833981 451.16232994 233.28254375 450.65969849 235.2976265 C445.61324582 255.51774077 439.87382586 274.57431134 420.8671875 286.02734375 C409.5538906 291.91938867 398.49372763 293.3746753 385.88647461 293.31665039 C384.61166229 293.31686943 384.61166229 293.31686943 383.31109619 293.3170929 C380.5354954 293.3164029 377.7599639 293.30865381 374.984375 293.30078125 C373.04667701 293.29891382 371.10897854 293.29749145 369.17127991 293.29649353 C364.09639153 293.29269396 359.02153224 293.28288578 353.94665527 293.27178955 C348.75806064 293.26152014 343.56946126 293.25698411 338.38085938 293.25195312 C328.21873729 293.241261 318.0566367 293.22421565 307.89453125 293.203125 C307.77480957 293.94788086 307.65508789 294.69263672 307.53173828 295.45996094 C307.36528809 296.44254883 307.19883789 297.42513672 307.02734375 298.4375 C306.86637207 299.40913086 306.70540039 300.38076172 306.53955078 301.38183594 C304.80567208 308.9657505 299.34157321 315.05648239 292.89453125 319.203125 C285.20338756 323.17729267 278.50008211 323.72468377 269.94702148 323.52685547 C268.0148116 323.508201 266.08260141 323.48956724 264.15038407 323.47170186 C262.09019516 323.44929954 260.03033191 323.41736571 257.97030449 323.38332748 C253.64024203 323.31451216 249.31053002 323.28807928 244.97999573 323.26980591 C232.67085586 323.21322994 220.36277299 323.13223154 208.05493164 322.93945312 C201.24353198 322.83311431 194.43367376 322.77890001 187.6214233 322.77953446 C184.03351499 322.77771331 180.45001933 322.75152751 176.86318779 322.65996933 C157.37856764 322.18073095 143.95184885 325.43071717 127.64422798 336.39929581 C123.11642843 339.36957864 118.3760476 341.95033427 113.64453125 344.578125 C107.82558096 347.90562902 102.01626895 351.25211164 96.26953125 354.703125 C95.28726563 355.2909375 94.305 355.87875 93.29296875 356.484375 C90.1810565 358.71440984 88.34339466 360.6406258 87.27734375 364.3515625 C86.67819399 369.52603768 86.79452571 372.75978373 89.89453125 377.203125 C94.38997832 381.36141354 97.59435656 382.32743613 103.61929035 382.33341026 C105.4201319 382.33884678 105.4201319 382.33884678 107.25735408 382.34439313 C108.59639957 382.34339646 109.935445 382.34231433 111.27449036 382.34115601 C112.6917355 382.34357329 114.10897993 382.34643531 115.52622336 382.34970534 C119.4300066 382.35747196 123.33377228 382.35907847 127.2375623 382.35975647 C131.44421305 382.36159378 135.65085347 382.36919928 139.85749817 382.37623596 C147.15023991 382.38776997 154.44297933 382.3960099 161.73572731 382.40235519 C173.25992486 382.41267225 184.78409349 382.43323331 196.30827332 382.45547485 C200.24931421 382.46295483 204.19035523 382.47036851 208.13139629 382.47776222 C209.11634838 382.47961279 210.10130048 382.48146335 211.1160996 382.48337 C222.33203559 382.50430389 233.54797478 382.52312908 244.76391602 382.54101562 C245.78941713 382.54265381 246.81491824 382.54429199 247.87149515 382.54597981 C264.49268581 382.57226877 281.1138787 382.59090972 297.73508135 382.60760753 C314.79163867 382.62501975 331.84815229 382.65385568 348.90467471 382.6924969 C359.42977299 382.71591363 369.95480005 382.72989297 380.47992458 382.73182453 C387.6914742 382.73393169 394.90295295 382.74684231 402.11447076 382.76830386 C406.27719905 382.78034784 410.43978662 382.78747427 414.60253143 382.78159142 C418.41285822 382.77630292 422.22289772 382.78474879 426.0331765 382.80414779 C428.0656018 382.81090071 430.09805955 382.80289088 432.1304782 382.79437006 C433.33886248 382.8032099 434.54724675 382.81204974 435.79224873 382.82115746 C437.35387744 382.82319225 437.35387744 382.82319225 438.94705421 382.82526815 C443.75468425 383.44159049 446.97782764 385.18731829 450.20703125 388.765625 C453.64156807 393.72662263 453.48901935 398.2833632 452.89453125 404.203125 C450.70864984 408.8271049 447.70191064 412.29941485 442.89453125 414.203125 C438.24750248 414.80592835 433.60591836 414.74342142 428.92843628 414.71105957 C427.48399894 414.71566989 426.03956629 414.72202369 424.59514344 414.72996855 C420.62978665 414.74666843 416.66481487 414.73841254 412.69945669 414.72602367 C408.42114751 414.71697766 404.14290477 414.73094101 399.86460876 414.74194336 C391.48326105 414.7597407 383.10205653 414.7558824 374.72070317 414.7442928 C367.90600538 414.73525991 361.09134772 414.73403386 354.27664566 414.73838806 C352.82183439 414.73930746 352.82183439 414.73930746 351.33763299 414.74024543 C349.36728396 414.74152435 347.39693494 414.7428212 345.42658593 414.7441358 C326.94322288 414.75554609 308.45993914 414.74242273 289.9765891 414.72093433 C274.12888418 414.70307989 258.28129653 414.70615294 242.43359375 414.72460938 C224.02575568 414.74603738 205.61798725 414.75442957 187.21013844 414.74216032 C185.24519611 414.74088616 183.28025378 414.73962867 181.31531143 414.73838806 C179.86519508 414.73746241 179.86519508 414.73746241 178.38578346 414.73651806 C171.58506169 414.73306968 164.78438419 414.73888281 157.98366928 414.74830627 C149.68701397 414.75954983 141.39050995 414.7564375 133.09387188 414.7351833 C128.86350229 414.7247019 124.63338452 414.72050085 120.40301704 414.73377991 C116.52396655 414.74577145 112.64539929 414.73903107 108.76639213 414.7178697 C107.369333 414.71343185 105.97223234 414.71560592 104.5752003 414.72537285 C89.41307037 414.8231728 77.91479798 410.79011662 66.70703125 400.578125 C57.55326974 391.05894387 54.46963703 378.92759304 54.53100586 366.12109375 C54.80819454 354.01841978 59.1714498 344.01940492 67.69091797 335.38183594 C73.73216898 329.68575997 80.34516218 325.83713084 87.64453125 321.953125 C89.43659217 320.98294242 91.22640391 320.00869181 93.01620483 319.03434753 C94.21972416 318.37962855 95.42400816 317.72631324 96.62905884 317.07441711 C103.27921569 313.47226301 109.822401 309.6880305 116.35839844 305.88378906 C117.54804199 305.19687988 117.54804199 305.19687988 118.76171875 304.49609375 C119.44347168 304.0993042 120.12522461 303.70251465 120.82763672 303.29370117 C123.12557731 302.08121586 125.46899379 301.13007021 127.89453125 300.203125 C127.7451561 299.62623932 127.59578094 299.04935364 127.44187927 298.45498657 C119.20602246 266.64220191 111.01702994 234.81764317 102.884799 202.97820663 C101.42878034 197.27761607 99.97179314 191.57727435 98.5138998 185.87716293 C93.79118882 167.41161573 89.0769525 148.94407429 84.40513611 130.46557617 C82.72140638 123.80671048 81.03166162 117.14937561 79.34032154 110.49243927 C77.97859802 105.13068768 76.62476991 99.76702637 75.27698803 94.40175438 C74.4430969 91.09036676 73.60153598 87.78096328 72.75788689 84.47204971 C72.37279448 82.95521991 71.99081158 81.4375963 71.61236763 79.91909409 C67.81678823 64.70233167 63.575445 49.95253638 50.140625 40.55078125 C41.02563577 35.08178771 33.19501935 33.07891597 22.71875 33.02734375 C20.90298321 33.00414438 19.08722797 32.980027 17.27148438 32.95507812 C14.42773707 32.92001856 11.5844154 32.89063627 8.74047852 32.87719727 C5.98272017 32.86163835 3.22618206 32.82138438 0.46875 32.77734375 C-0.3710994 32.77925217 -1.21094879 32.78116058 -2.07624817 32.78312683 C-9.15518538 32.63794946 -14.54831108 30.76028267 -19.60546875 25.703125 C-21.82557447 20.52287833 -21.85935167 15.75444471 -21.10546875 10.203125 C-18.95559647 5.66450575 -16.62643863 3.35058569 -12.10546875 1.203125 C-8.16807936 -0.1371141 -4.11128769 0.02307424 0 0 Z M104.89453125 79.203125 C105.54681364 85.74622713 106.9593888 91.90893328 108.6171875 98.265625 C108.96952454 99.63944336 108.96952454 99.63944336 109.32897949 101.04101562 C110.19960863 104.42977428 111.07881486 107.8163247 111.95703125 111.203125 C113.91640625 118.793125 115.87578125 126.383125 117.89453125 134.203125 C136.70453125 134.203125 155.51453125 134.203125 174.89453125 134.203125 C173.94578125 127.70625 172.99703125 121.209375 172.01953125 114.515625 C171.72449707 112.49348877 171.42946289 110.47135254 171.12548828 108.38793945 C170.50248235 104.12104805 169.87483879 99.85485144 169.24523926 95.58892822 C168.92272104 93.39489502 168.60493259 91.20022886 168.28808594 89.00537109 C168.11438477 87.82668457 167.94068359 86.64799805 167.76171875 85.43359375 C167.61589355 84.43094482 167.47006836 83.4282959 167.31982422 82.39526367 C167.11280318 80.23490022 167.11280318 80.23490022 165.89453125 79.203125 C163.99209363 79.10921204 162.08614666 79.08568842 160.18139648 79.08959961 C158.34961098 79.08971291 158.34961098 79.08971291 156.4808197 79.08982849 C155.13825439 79.09493589 153.7956895 79.10015189 152.453125 79.10546875 C151.08691967 79.10733301 149.72071368 79.10875687 148.35450745 79.10975647 C144.7525143 79.11358106 141.15056125 79.12341083 137.54858398 79.13446045 C133.8754938 79.14467584 130.20239716 79.14925436 126.52929688 79.15429688 C119.31769002 79.16503316 112.10611625 79.18210886 104.89453125 79.203125 Z M182.89453125 79.203125 C183.56062323 86.53013678 184.34098237 93.66506598 185.5234375 100.90234375 C185.66003784 101.75622681 185.79663818 102.61010986 185.93737793 103.48986816 C186.4398769 106.62410612 186.94881115 109.75730964 187.45703125 112.890625 C188.59140625 119.92375 189.72578125 126.956875 190.89453125 134.203125 C209.70453125 134.203125 228.51453125 134.203125 247.89453125 134.203125 C247.2736811 113.69819933 247.2736811 113.69819933 246.39453125 93.203125 C246.34147827 92.09553833 246.34147827 92.09553833 246.28735352 90.96557617 C246.07081172 86.93846736 245.56240659 83.21037705 244.89453125 79.203125 C224.43453125 79.203125 203.97453125 79.203125 182.89453125 79.203125 Z M260.89453125 79.203125 C261.88453125 97.353125 262.87453125 115.503125 263.89453125 134.203125 C282.70453125 134.203125 301.51453125 134.203125 320.89453125 134.203125 C321.71079901 127.07158751 321.71079901 127.07158751 322.19165039 119.95874023 C322.23213501 119.0259021 322.27261963 118.09306396 322.31433105 117.13195801 C322.35239868 116.18477905 322.39046631 115.2376001 322.4296875 114.26171875 C322.46799683 113.36650513 322.50630615 112.4712915 322.54577637 111.5489502 C322.68621568 108.24631606 322.82132044 104.94345681 322.95703125 101.640625 C323.26640625 94.23625 323.57578125 86.831875 323.89453125 79.203125 C303.10453125 79.203125 282.31453125 79.203125 260.89453125 79.203125 Z M339.89453125 79.203125 C339.58515625 83.823125 339.27578125 88.443125 338.95703125 93.203125 C338.86172119 94.60304688 338.76641113 96.00296875 338.66821289 97.4453125 C337.8635706 109.70025336 337.40639901 121.91829867 336.89453125 134.203125 C355.70453125 134.203125 374.51453125 134.203125 393.89453125 134.203125 C395.83099597 123.87531318 397.692442 113.60520965 399.25708008 103.2265625 C399.58728019 101.04342123 399.92532818 98.86157986 400.26367188 96.6796875 C400.47833434 95.26830053 400.69254443 93.85684467 400.90625 92.4453125 C401.09662842 91.1960498 401.28700684 89.94678711 401.4831543 88.65966797 C402.01271121 84.79028892 402.01271121 84.79028892 401.89453125 79.203125 C381.43453125 79.203125 360.97453125 79.203125 339.89453125 79.203125 Z M418.89453125 79.203125 C416.95806653 89.53093682 415.0966205 99.80104035 413.53198242 110.1796875 C413.20178231 112.36282877 412.86373432 114.54467014 412.52539062 116.7265625 C412.31072816 118.13794947 412.09651807 119.54940533 411.8828125 120.9609375 C411.69243408 122.2102002 411.50205566 123.45946289 411.3059082 124.74658203 C410.77635129 128.61596108 410.77635129 128.61596108 410.89453125 134.203125 C426.73453125 134.203125 442.57453125 134.203125 458.89453125 134.203125 C462.71329583 120.55385305 462.71329583 120.55385305 466.3515625 106.859375 C466.54425217 106.11272583 466.73694183 105.36607666 466.93547058 104.59680176 C467.33015818 103.06524501 467.72399936 101.53346986 468.11694336 100.00146484 C468.72136242 97.64730638 469.33031711 95.29434813 469.93945312 92.94140625 C470.32709096 91.43496478 470.71447133 89.92845703 471.1015625 88.421875 C471.28274124 87.72308228 471.46391998 87.02428955 471.65058899 86.30432129 C472.57856954 82.79830223 472.57856954 82.79830223 472.89453125 79.203125 C455.07453125 79.203125 437.25453125 79.203125 418.89453125 79.203125 Z M122.89453125 150.203125 C123.71869786 156.93091577 123.71869786 156.93091577 125.10961914 163.42578125 C125.3531311 164.37904297 125.59664307 165.33230469 125.84753418 166.31445312 C126.10151978 167.28833984 126.35550537 168.26222656 126.6171875 169.265625 C126.96952454 170.63944336 126.96952454 170.63944336 127.32897949 172.04101562 C128.19960863 175.42977428 129.07881486 178.8163247 129.95703125 182.203125 C131.91640625 189.793125 133.87578125 197.383125 135.89453125 205.203125 C152.39453125 205.203125 168.89453125 205.203125 185.89453125 205.203125 C184.77666083 197.69123947 183.65675613 190.1797185 182.53149414 182.66894531 C182.14908185 180.11216244 181.76789325 177.55519625 181.38793945 174.99804688 C180.84255108 171.32894127 180.29280904 167.66051093 179.7421875 163.9921875 C179.57235855 162.84319977 179.4025296 161.69421204 179.22755432 160.51040649 C178.98741859 158.91898331 178.98741859 158.91898331 178.74243164 157.29541016 C178.60253311 156.35831207 178.46263458 155.42121399 178.3184967 154.45571899 C177.9964454 152.17857022 177.9964454 152.17857022 176.89453125 150.203125 C159.07453125 150.203125 141.25453125 150.203125 122.89453125 150.203125 Z M193.89453125 150.203125 C194.50195602 157.4922223 195.13388951 164.57372343 196.26953125 171.765625 C196.3989209 172.60480469 196.52831055 173.44398438 196.66162109 174.30859375 C196.93195302 176.05645759 197.20425844 177.80401731 197.47851562 179.55126953 C197.89794344 182.22487569 198.31077649 184.89944039 198.72265625 187.57421875 C198.98790125 189.28391316 199.25351282 190.99355076 199.51953125 192.703125 C199.64247559 193.4979126 199.76541992 194.2927002 199.89208984 195.11157227 C200.43050288 198.5303094 201.05425402 201.84201607 201.89453125 205.203125 C218.39453125 205.203125 234.89453125 205.203125 251.89453125 205.203125 C251.58515625 198.54125 251.27578125 191.879375 250.95703125 185.015625 C250.86172119 182.94128174 250.76641113 180.86693848 250.66821289 178.72973633 C250.5888582 177.03986907 250.50935879 175.35000861 250.4296875 173.66015625 C250.39161987 172.81980835 250.35355225 171.97946045 250.31433105 171.11364746 C249.98183269 164.12324154 249.43203425 157.19066404 248.89453125 150.203125 C230.74453125 150.203125 212.59453125 150.203125 193.89453125 150.203125 Z M264.89453125 150.203125 C265.59491243 177.75869925 265.59491243 177.75869925 267.89453125 205.203125 C284.06453125 205.203125 300.23453125 205.203125 316.89453125 205.203125 C318.49453749 202.00311252 318.25951865 198.49168708 318.4296875 194.96875 C318.47266464 194.13913757 318.51564178 193.30952515 318.55992126 192.45477295 C318.65027078 190.68952211 318.73838569 188.92415573 318.82446289 187.15869141 C318.95448006 184.50519178 319.09285488 181.85223113 319.23242188 179.19921875 C319.31952083 177.47658823 319.4061235 175.75393254 319.4921875 174.03125 C319.532798 173.25670471 319.57340851 172.48215942 319.61524963 171.68414307 C319.9572099 164.50105978 319.89453125 157.42421688 319.89453125 150.203125 C301.74453125 150.203125 283.59453125 150.203125 264.89453125 150.203125 Z M335.89453125 150.203125 C335.56453125 156.308125 335.23453125 162.413125 334.89453125 168.703125 C334.79011719 170.59353516 334.68570312 172.48394531 334.578125 174.43164062 C334.4957603 175.99086784 334.41371013 177.55011171 334.33203125 179.109375 C334.28884766 179.86959961 334.24566406 180.62982422 334.20117188 181.41308594 C333.79217901 189.36897095 333.89453125 197.19656218 333.89453125 205.203125 C350.06453125 205.203125 366.23453125 205.203125 382.89453125 205.203125 C384.80013445 195.03990795 386.65985687 184.91665806 388.25708008 174.70874023 C388.5870107 172.60893387 388.92528901 170.51056829 389.26367188 168.41210938 C389.47837069 167.04955882 389.69258195 165.68693133 389.90625 164.32421875 C390.09662842 163.1220874 390.28700684 161.91995605 390.4831543 160.68139648 C391.03155848 156.62828565 391.03155848 156.62828565 390.89453125 150.203125 C372.74453125 150.203125 354.59453125 150.203125 335.89453125 150.203125 Z M407.89453125 150.203125 C406.94578125 155.875 405.99703125 161.546875 405.01953125 167.390625 C404.72449707 169.15172607 404.42946289 170.91282715 404.12548828 172.72729492 C403.49465487 176.49874506 402.86991102 180.27117191 402.24963379 184.04437256 C401.91925282 186.05283673 401.58619921 188.06086077 401.25292969 190.06884766 C400.97884277 191.76920166 400.97884277 191.76920166 400.69921875 193.50390625 C400.46307861 194.95470581 400.46307861 194.95470581 400.22216797 196.43481445 C399.77699896 199.73158882 399.77699896 199.73158882 399.89453125 205.203125 C413.42453125 205.203125 426.95453125 205.203125 440.89453125 205.203125 C442.72892832 198.17424611 444.5624657 191.14515468 446.39379883 184.11547852 C447.01698853 181.72439548 447.64068271 179.33344387 448.26489258 176.94262695 C449.16229969 173.50506511 450.05788834 170.06703389 450.953125 166.62890625 C451.23232285 165.56102371 451.51152069 164.49314117 451.79917908 163.39289856 C452.05937332 162.39223862 452.31956757 161.39157867 452.58764648 160.3605957 C452.81636948 159.48345413 453.04509247 158.60631256 453.28074646 157.70259094 C453.89055321 155.21932445 454.39305356 152.71051346 454.89453125 150.203125 C439.38453125 150.203125 423.87453125 150.203125 407.89453125 150.203125 Z M140.89453125 222.203125 C143.37600522 233.68068854 146.0467247 245.09076555 148.98657227 256.4597168 C149.59680557 258.82283839 150.19994068 261.18770531 150.80273438 263.55273438 C151.1909918 265.06260663 151.57964728 266.57237661 151.96875 268.08203125 C152.14790451 268.78598526 152.32705902 269.48993927 152.51164246 270.21522522 C153.1670833 273.48133433 153.1670833 273.48133433 154.89453125 276.203125 C157.99704326 276.29186635 161.07721245 276.31830955 164.1796875 276.30078125 C165.11050644 276.2993663 166.04132538 276.29795135 167.00035095 276.29649353 C169.98594316 276.29087672 172.97146154 276.2783214 175.95703125 276.265625 C177.97591038 276.26061216 179.99479068 276.25604888 182.01367188 276.25195312 C186.97398697 276.24090183 191.93424657 276.22362595 196.89453125 276.203125 C195.77929648 268.67255425 194.65766565 261.14295659 193.53149414 253.61401367 C193.14881927 251.05043356 192.7676319 248.48663096 192.38793945 245.92260742 C191.84322941 242.24599218 191.2932471 238.57019945 190.7421875 234.89453125 C190.57235855 233.74038223 190.4025296 232.58623322 190.22755432 231.39710999 C189.98741859 229.8055735 189.98741859 229.8055735 189.74243164 228.18188477 C189.60253311 227.24256607 189.46263458 226.30324738 189.3184967 225.33546448 C189.10478477 223.22816553 189.10478477 223.22816553 187.89453125 222.203125 C186.42098777 222.11008482 184.94302534 222.08566235 183.46655273 222.08959961 C182.52565292 222.08967514 181.58475311 222.08975067 180.61534119 222.08982849 C179.59243484 222.09498978 178.5695285 222.10015106 177.515625 222.10546875 C175.95292625 222.10759117 175.95292625 222.10759117 174.35865784 222.10975647 C171.01642031 222.1153742 167.67424868 222.1279297 164.33203125 222.140625 C162.07226659 222.14563772 159.81250088 222.15020102 157.55273438 222.15429688 C151.99997734 222.16534939 146.447259 222.18210476 140.89453125 222.203125 Z M204.89453125 222.203125 C205.52170283 229.10201242 206.19948912 235.84658166 207.26953125 242.66796875 C207.3989209 243.50856339 207.52831055 244.34915802 207.66162109 245.21522522 C207.93230231 246.9690105 208.20461053 248.72254541 208.47851562 250.47583008 C208.89730655 253.15840221 209.31036183 255.84181311 209.72265625 258.52539062 C209.98794776 260.23963498 210.25356109 261.95382956 210.51953125 263.66796875 C210.64247559 264.4658934 210.76541992 265.26381805 210.89208984 266.08592224 C211.42958833 269.513703 212.05211691 272.83346764 212.89453125 276.203125 C226.75453125 276.203125 240.61453125 276.203125 254.89453125 276.203125 C254.91140629 263.68507605 254.91140629 263.68507605 254.45703125 251.20703125 C254.41771484 250.45546753 254.37839844 249.70390381 254.33789062 248.92956543 C254.19439734 246.2080222 254.04411326 243.48684037 253.89453125 240.765625 C253.56453125 234.64 253.23453125 228.514375 252.89453125 222.203125 C237.05453125 222.203125 221.21453125 222.203125 204.89453125 222.203125 Z M268.89453125 222.203125 C268.88758084 234.1504384 268.88758084 234.1504384 269.296875 246.06640625 C269.33889542 246.90987106 269.38091583 247.75333588 269.42420959 248.62236023 C269.51238737 250.37064544 269.60234377 252.11884187 269.6940918 253.86694336 C269.83414447 256.55620249 269.96516645 259.2458108 270.09570312 261.93554688 C270.18305731 263.64586082 270.27092786 265.35614848 270.359375 267.06640625 C270.39796127 267.87040359 270.43654755 268.67440094 270.4763031 269.50276184 C270.35117643 273.15808847 270.35117643 273.15808847 271.89453125 276.203125 C274.99683269 276.29186032 278.07740484 276.31838187 281.1796875 276.30078125 C282.00432495 276.29977417 282.8289624 276.29876709 283.67858887 276.29772949 C286.77141706 276.29248092 289.86422549 276.27851977 292.95703125 276.265625 C299.86640625 276.245 306.77578125 276.224375 313.89453125 276.203125 C315.37953125 249.473125 315.37953125 249.473125 316.89453125 222.203125 C301.05453125 222.203125 285.21453125 222.203125 268.89453125 222.203125 Z M332.89453125 222.203125 C332.04173129 227.27720383 332.04173129 227.27720383 331.59741211 232.3215332 C331.55744614 233.07284012 331.51748016 233.82414703 331.4763031 234.59822083 C331.43771683 235.39209702 331.39913055 236.18597321 331.359375 237.00390625 C331.31639786 237.83971725 331.27342072 238.67552826 331.22914124 239.53666687 C331.13930236 241.29901903 331.05115392 243.06145808 330.96459961 244.82397461 C330.83295737 247.49682124 330.69522536 250.16930219 330.55664062 252.84179688 C330.46968817 254.56248165 330.38308828 256.28318428 330.296875 258.00390625 C330.2562645 258.79170975 330.21565399 259.57951324 330.17381287 260.39118958 C330.13699905 261.15195297 330.10018524 261.91271637 330.06225586 262.6965332 C330.02974228 263.35128128 329.9972287 264.00602936 329.96372986 264.68061829 C329.85840395 268.52007872 329.89453125 272.36222017 329.89453125 276.203125 C343.75453125 276.203125 357.61453125 276.203125 371.89453125 276.203125 C373.24568655 270.12292617 374.45989419 264.1440354 375.40234375 258.00390625 C375.53269012 257.16522507 375.6630365 256.32654388 375.79733276 255.46244812 C376.06937214 253.70558769 376.33987351 251.94848846 376.60888672 250.19116211 C377.02019206 247.51131955 377.43953251 244.8328136 377.859375 242.15429688 C378.12418501 240.43757507 378.38852432 238.72078057 378.65234375 237.00390625 C378.77731232 236.21003006 378.90228088 235.41615387 379.03103638 234.59822083 C379.14470551 233.84691391 379.25837463 233.09560699 379.37548828 232.3215332 C379.5263237 231.34299126 379.5263237 231.34299126 379.6802063 230.34468079 C379.95054974 227.64338283 379.89453125 224.91791711 379.89453125 222.203125 C364.38453125 222.203125 348.87453125 222.203125 332.89453125 222.203125 Z M396.89453125 222.203125 C394.9545329 232.54978286 393.09503384 242.83682605 391.53198242 253.23461914 C391.20129816 255.42866327 390.86352539 257.62154619 390.52539062 259.81445312 C390.31077732 261.22910292 390.09656885 262.64381421 389.8828125 264.05859375 C389.69243408 265.31309326 389.50205566 266.56759277 389.3059082 267.86010742 C388.95731603 270.69291018 388.80887855 273.35559603 388.89453125 276.203125 C400.59251345 276.93807676 409.79897606 274.82579284 418.89453125 267.17578125 C427.74326788 258.44802344 430.51869929 246.90855136 433.64453125 235.265625 C433.86761963 234.43627441 434.09070801 233.60692383 434.32055664 232.75244141 C434.52543701 231.96401855 434.73031738 231.1755957 434.94140625 230.36328125 C435.12541992 229.65824463 435.30943359 228.95320801 435.49902344 228.22680664 C436.02240512 225.89249846 436.02240512 225.89249846 435.89453125 222.203125 C423.02453125 222.203125 410.15453125 222.203125 396.89453125 222.203125 Z " fill="#B5CCFE" transform="translate(21.10546875,2.796875)"/>
<path d="M0 0 C5.87746798 4.70635239 10.4170335 10.9675124 11.78515625 18.4921875 C12.6238141 29.53222449 11.54377887 37.11372304 4.53515625 45.7421875 C-2.05455948 52.79557192 -8.88448187 55.74743904 -18.40234375 56.8671875 C-28.10875526 55.9124585 -36.85272179 53.15085564 -43.21484375 45.4921875 C-48.30451852 38.23613835 -50.98562795 30.43328426 -50.21484375 21.4921875 C-47.88255327 10.81812813 -42.89665602 4.05789861 -34.21484375 -2.5078125 C-23.9440777 -8.9618847 -9.55594565 -6.50545859 0 0 Z " fill="#234B72" transform="translate(447.21484375,452.5078125)"/>
<path d="M0 0 C6.97566433 4.99297984 11.64656269 10.65327532 14 19 C15.0338987 29.81987016 14.01079664 38.8891525 7.5 47.75 C1.48879264 54.23779925 -7.54183773 57.57190884 -16.1875 58.25 C-24.81467717 57.68428346 -32.48900239 54.76403804 -39 49 C-46.75589649 39.58331197 -47.922723 30.82019842 -47 19 C-45.20970936 11.41002532 -40.09193669 4.78555825 -33.6875 0.42578125 C-23.12071631 -5.63969163 -10.73738447 -6.25888565 0 0 Z " fill="#234B72" transform="translate(184,451)"/>
<path d="M0 0 C1.1962072 -0.00855011 1.1962072 -0.00855011 2.4165802 -0.01727295 C4.11030763 -0.0267149 5.80405337 -0.03325374 7.49780273 -0.03710938 C10.02818536 -0.04667152 12.55770356 -0.07763919 15.08789062 -0.109375 C39.18084033 -0.26702954 60.92422353 5.15081428 78.89453125 22.203125 C74.36461329 27.64045555 69.55158909 32.66771431 64.51953125 37.640625 C63.41544922 38.73793945 63.41544922 38.73793945 62.2890625 39.85742188 C60.49317051 41.64165223 58.6949714 43.42348624 56.89453125 45.203125 C56.20488281 44.74421875 55.51523438 44.2853125 54.8046875 43.8125 C43.97274405 36.7397907 35.64024842 33.09095326 22.71875 33.02734375 C20.90298321 33.00414438 19.08722797 32.980027 17.27148438 32.95507812 C14.42773707 32.92001856 11.5844154 32.89063627 8.74047852 32.87719727 C5.98272017 32.86163835 3.22618206 32.82138438 0.46875 32.77734375 C-0.3710994 32.77925217 -1.21094879 32.78116058 -2.07624817 32.78312683 C-9.15518538 32.63794946 -14.54831108 30.76028267 -19.60546875 25.703125 C-21.82557447 20.52287833 -21.85935167 15.75444471 -21.10546875 10.203125 C-18.95559647 5.66450575 -16.62643863 3.35058569 -12.10546875 1.203125 C-8.16807936 -0.1371141 -4.11128769 0.02307424 0 0 Z " fill="#FE4B3B" transform="translate(21.10546875,2.796875)"/>
<path d="M0 0 C0.17432891 3.74941253 0.28085841 7.49778509 0.375 11.25 C0.45041016 12.84521484 0.45041016 12.84521484 0.52734375 14.47265625 C0.58314607 17.43017901 0.5786752 20.0974523 0 23 C-2.98828125 25.51171875 -2.98828125 25.51171875 -6 27 C-6.57014804 30.61093762 -6.82874253 32.8160821 -4.6875 35.875 C-2.88214533 37.18546123 -2.88214533 37.18546123 0 38 C0 45.92 0 53.84 0 62 C-10.82238187 60.03229421 -19.02333416 58.07210409 -25.484375 48.890625 C-29.9218862 41.32075296 -32.38829841 33.35374526 -30.46484375 24.55078125 C-27.85269767 15.00146035 -22.88945431 8.89756238 -15 3 C-9.93080568 0.18482013 -5.79410772 -0.11115794 0 0 Z " fill="#365698" transform="translate(428,447)"/>
<path d="M0 0 C0.14496508 3.77043032 0.23395607 7.54014742 0.3125 11.3125 C0.35439453 12.38435547 0.39628906 13.45621094 0.43945312 14.56054688 C0.45556641 15.58857422 0.47167969 16.61660156 0.48828125 17.67578125 C0.51446533 18.62364502 0.54064941 19.57150879 0.56762695 20.5480957 C0 23 0 23 -2.46801758 24.70776367 C-3.30357178 25.13420166 -4.13912598 25.56063965 -5 26 C-6.39935013 28.79870027 -6.25265405 30.90498792 -6 34 C-4.14657225 36.55949546 -3.06243607 36.97918798 0 38 C0 45.92 0 53.84 0 62 C-11.58103331 59.89435758 -18.89291983 57.85801421 -25.74609375 48.22265625 C-28.94924454 42.54479705 -30.53725052 37.64726991 -30.4375 31.125 C-30.42920166 30.42246094 -30.42090332 29.71992188 -30.41235352 28.99609375 C-30.12431802 20.12337055 -26.95266735 14.22031001 -21 7.79296875 C-14.72562198 2.16808689 -8.32523664 -0.18920992 0 0 Z " fill="#365697" transform="translate(167,447)"/>
<path d="M0 0 C10.23 0 20.46 0 31 0 C29.8511115 10.33999651 27.59104021 17.40971386 19.8984375 24.53125 C12.95835614 29.90053105 6.34768553 31.15563111 -2.265625 31.09765625 C-3.05902283 31.0962413 -3.85242065 31.09482635 -4.66986084 31.09336853 C-7.19661272 31.08778415 -9.72327504 31.07523454 -12.25 31.0625 C-13.96614455 31.05748298 -15.68229049 31.05292043 -17.3984375 31.04882812 C-21.59899269 31.03781984 -25.79948117 31.02056596 -30 31 C-30 30.67 -30 30.34 -30 30 C-28.7315625 29.77957031 -28.7315625 29.77957031 -27.4375 29.5546875 C-17.69316658 27.62796703 -11.65142636 24.90448134 -5.6875 16.875 C-2.22974347 11.09469684 -2.22974347 11.09469684 0 0 Z " fill="#A0B4DE" transform="translate(298,295)"/>
<path d="M0 0 C4.44739413 -0.07449251 8.8944519 -0.12876257 13.34228516 -0.16479492 C14.85341727 -0.17982543 16.36450618 -0.20025564 17.87548828 -0.22631836 C20.05512187 -0.26295689 22.23417575 -0.27978338 24.4140625 -0.29296875 C25.7232666 -0.3086792 27.0324707 -0.32438965 28.38134766 -0.34057617 C33.59011334 0.14965646 36.81604586 1.68805081 40.3125 5.5625 C43.74703682 10.52349763 43.5944881 15.0802382 43 21 C40.66258806 25.94452525 37.72644278 28.35052731 33 31 C29.38134766 31.45410156 29.38134766 31.45410156 25.4140625 31.390625 C24.71227875 31.38496521 24.010495 31.37930542 23.28744507 31.37347412 C21.06590913 31.35124483 18.84604077 31.30108056 16.625 31.25 C15.11070053 31.22991731 13.59637554 31.21166964 12.08203125 31.1953125 C8.38748732 31.15142633 4.69390667 31.08249577 1 31 C1.60457031 30.55785156 2.20914062 30.11570312 2.83203125 29.66015625 C6.01604547 27.22194716 9.18837247 24.62325505 11 21 C11.40024358 16.22016798 11.55473426 11.62953189 10 7.0625 C7.12369217 4.09630755 3.77009413 2.60296164 0 1 C0 0.67 0 0.34 0 0 Z " fill="#A0B4DE" transform="translate(431,386)"/>
<path d="M0 0 C2.5881216 2.25417042 2.94242643 3.60520979 3.4375 7 C3 10 3 10 1.4375 12.375 C-1.93510779 14.62340519 -4.02512383 14.56783945 -8 14 C-10.4375 12.4375 -10.4375 12.4375 -12 10 C-12.5625 6.5 -12.5625 6.5 -12 3 C-8.33340589 -1.4443565 -5.38867153 -1.59664341 0 0 Z " fill="#0F3E4E" transform="translate(433,471)"/>
<path d="M0 0 C3.375 1.0625 3.375 1.0625 5.3125 2.75 C6.71317538 5.79852877 6.8592732 7.74176952 6.375 11.0625 C4.8125 13.4375 4.8125 13.4375 2.375 15.0625 C-1.59987617 15.63033945 -3.68989221 15.68590519 -7.0625 13.4375 C-9.12291771 10.30566508 -9.3017545 8.74705227 -8.625 5.0625 C-5.92665364 1.21940065 -4.75860157 0.08204485 0 0 Z " fill="#0E3E4D" transform="translate(168.625,469.9375)"/>
</svg>
